<svg width="221" height="103" viewBox="0 0 221 103" fill="none" xmlns="http://www.w3.org/2000/svg">
<g clip-path="url(#clip0_898_2143)">
<path d="M7.22651 4.11159C7.22651 6.10891 5.61302 7.73002 3.61667 7.73002C1.62032 7.73002 0 6.10891 0 4.11159C0 2.11427 1.61349 0.5 3.60984 0.5C5.60619 0.5 7.21968 2.12111 7.21968 4.11159H7.22651Z" fill="#6DB3AE"/>
<path d="M15.9169 12.6887C15.9169 14.6861 14.3035 16.3003 12.3071 16.3003C10.3108 16.3003 8.69727 14.6861 8.69727 12.6887C8.69727 10.6914 10.3108 9.07715 12.3071 9.07715C14.3035 9.07715 15.9169 10.6983 15.9169 12.6887Z" fill="#6DB3AE"/>
<path d="M20.9067 16.3003C22.9004 16.3003 24.5166 14.6834 24.5166 12.6887C24.5166 10.6941 22.9004 9.07715 20.9067 9.07715C18.9131 9.07715 17.2969 10.6941 17.2969 12.6887C17.2969 14.6834 18.9131 16.3003 20.9067 16.3003Z" fill="#6DB3AE"/>
<path d="M15.9169 21.2942C15.9169 23.2915 14.3035 24.9058 12.3071 24.9058C10.3108 24.9058 8.69727 23.2915 8.69727 21.2942C8.69727 19.2969 10.3108 17.6826 12.3071 17.6826C14.3035 17.6826 15.9169 19.2969 15.9169 21.2942Z" fill="#6DB3AE"/>
<path d="M24.415 21.2942C24.415 23.2915 22.7947 24.9058 20.8052 24.9058C18.8156 24.9058 17.1953 23.2915 17.1953 21.2942C17.1953 19.2969 18.8088 17.6826 20.8052 17.6826C22.8015 17.6826 24.415 19.2969 24.415 21.2942Z" fill="#283848"/>
<path d="M41.6083 21.2942C41.6083 23.2915 39.988 24.9058 37.9985 24.9058C36.009 24.9058 34.3887 23.2915 34.3887 21.2942C34.3887 19.2969 36.0022 17.6826 37.9985 17.6826C39.9949 17.6826 41.6083 19.2969 41.6083 21.2942Z" fill="#283848"/>
<path d="M58.8437 21.2942C58.8437 23.2915 57.2234 24.9058 55.227 24.9058C53.2307 24.9058 51.6172 23.2915 51.6172 21.2942C51.6172 19.2969 53.2307 17.6826 55.227 17.6826C57.2234 17.6826 58.8437 19.2969 58.8437 21.2942Z" fill="#6DB3AE"/>
<path d="M33.0087 29.885C33.0087 31.8823 31.3952 33.5035 29.3989 33.5035C27.4025 33.5035 25.7891 31.8823 25.7891 29.885C25.7891 27.8877 27.4094 26.2734 29.3989 26.2734C31.3884 26.2734 33.0087 27.8945 33.0087 29.885Z" fill="#283848"/>
<path d="M41.6083 29.885C41.6083 31.8823 39.988 33.5035 37.9985 33.5035C36.009 33.5035 34.3887 31.8823 34.3887 29.885C34.3887 27.8877 36.0022 26.2734 37.9985 26.2734C39.9949 26.2734 41.6083 27.8945 41.6083 29.885Z" fill="#6DB3AE"/>
<path d="M20.8052 42.1773C22.7988 42.1773 24.415 40.5603 24.415 38.5657C24.415 36.5711 22.7988 34.9541 20.8052 34.9541C18.8115 34.9541 17.1953 36.5711 17.1953 38.5657C17.1953 40.5603 18.8115 42.1773 20.8052 42.1773Z" fill="#6DB3AE"/>
<path d="M33.0087 38.5657C33.0087 40.563 31.3952 42.1773 29.3989 42.1773C27.4025 42.1773 25.7891 40.563 25.7891 38.5657C25.7891 36.5684 27.4094 34.9541 29.3989 34.9541C31.3884 34.9541 33.0087 36.5684 33.0087 38.5657Z" fill="#6DB3AE"/>
<path d="M41.6083 38.5657C41.6083 40.563 39.988 42.1773 37.9985 42.1773C36.009 42.1773 34.3887 40.563 34.3887 38.5657C34.3887 36.5684 36.0022 34.9541 37.9985 34.9541C39.9949 34.9541 41.6083 36.5684 41.6083 38.5657Z" fill="#283848"/>
<path d="M67.5068 38.5657C67.5068 40.563 65.8933 42.1773 63.8969 42.1773C61.9006 42.1773 60.2871 40.563 60.2871 38.5657C60.2871 36.5684 61.9074 34.9541 63.8969 34.9541C65.8865 34.9541 67.5068 36.5684 67.5068 38.5657Z" fill="#3E7578"/>
<path d="M72.477 42.1773C74.4707 42.1773 76.0869 40.5603 76.0869 38.5657C76.0869 36.5711 74.4707 34.9541 72.477 34.9541C70.4834 34.9541 68.8672 36.5711 68.8672 38.5657C68.8672 40.5603 70.4834 42.1773 72.477 42.1773Z" fill="#3E7578"/>
<path d="M33.0087 47.2044C33.0087 49.2017 31.3952 50.8159 29.3989 50.8159C27.4025 50.8159 25.7891 49.2017 25.7891 47.2044C25.7891 45.207 27.4094 43.5928 29.3989 43.5928C31.3884 43.5928 33.0087 45.207 33.0087 47.2044Z" fill="#6DB3AE"/>
<path d="M58.8437 47.2044C58.8437 49.2017 57.2234 50.8159 55.227 50.8159C53.2307 50.8159 51.6172 49.2017 51.6172 47.2044C51.6172 45.207 53.2307 43.5928 55.227 43.5928C57.2234 43.5928 58.8437 45.207 58.8437 47.2044Z" fill="#283848"/>
<path d="M33.0087 55.8089C33.0087 57.8062 31.3952 59.4273 29.3989 59.4273C27.4025 59.4273 25.7891 57.8062 25.7891 55.8089C25.7891 53.8115 27.4094 52.1973 29.3989 52.1973C31.3884 52.1973 33.0087 53.8184 33.0087 55.8089Z" fill="#6DB3AE"/>
<path d="M50.2031 55.8089C50.2031 57.8062 48.5828 59.4273 46.5932 59.4273C44.6037 59.4273 42.9766 57.8062 42.9766 55.8089C42.9766 53.8115 44.5969 52.1973 46.5932 52.1973C48.5896 52.1973 50.2031 53.8184 50.2031 55.8089Z" fill="#283848"/>
<path d="M67.5068 55.8089C67.5068 57.8062 65.8933 59.4273 63.8969 59.4273C61.9006 59.4273 60.2871 57.8062 60.2871 55.8089C60.2871 53.8115 61.9074 52.1973 63.8969 52.1973C65.8865 52.1973 67.5068 53.8184 67.5068 55.8089Z" fill="#3E7578"/>
<path d="M33.0087 64.4417C33.0087 66.439 31.3952 68.0601 29.3989 68.0601C27.4025 68.0601 25.7891 66.439 25.7891 64.4417C25.7891 62.4444 27.4094 60.8301 29.3989 60.8301C31.3884 60.8301 33.0087 62.4444 33.0087 64.4417Z" fill="#93C01F"/>
<path d="M33.0087 73.053C33.0087 75.0435 31.3952 76.6646 29.3989 76.6646C27.4025 76.6646 25.7891 75.0503 25.7891 73.053C25.7891 71.0557 27.4094 69.4346 29.3989 69.4346C31.3884 69.4346 33.0087 71.0488 33.0087 73.053Z" fill="#93C01F"/>
<path d="M41.6083 73.053C41.6083 75.0435 39.988 76.6646 37.9985 76.6646C36.009 76.6646 34.3887 75.0503 34.3887 73.053C34.3887 71.0557 36.0022 69.4346 37.9985 69.4346C39.9949 69.4346 41.6083 71.0488 41.6083 73.053Z" fill="#93C01F"/>
<path d="M46.5719 69.4279C46.5172 69.4279 46.4693 69.4416 46.4146 69.4416C43.7209 69.3595 41.5673 67.1639 41.5605 64.4483L41.6015 47.2386C41.6015 47.2386 41.6015 47.2112 41.6015 47.2044C41.6015 45.207 39.9812 43.5928 37.9917 43.5928C36.0022 43.5928 34.4229 45.1728 34.3887 47.136L34.3203 64.2636H34.3408C34.3408 64.3252 34.3203 64.3799 34.3203 64.4415C34.3203 66.4388 35.9406 68.0531 37.937 68.0531C37.9985 68.0531 38.06 68.0394 38.1216 68.0326C40.8016 68.1283 42.9552 70.3308 42.9552 73.0395C42.9552 73.0532 42.9552 73.0737 42.9552 73.0874L42.9689 73.1011C43.0031 75.071 44.596 76.658 46.5719 76.658C48.5477 76.658 50.1886 75.0368 50.1886 73.0395C50.1886 71.0422 48.5682 69.4279 46.5719 69.4279Z" fill="#93C01F"/>
<path d="M20.8043 26.2734C19.7514 26.2734 18.8216 26.7317 18.1653 27.4499L17.8234 27.7646C16.8253 28.4623 16.21 28.4623 15.2118 27.7646L14.8152 27.4089C14.1589 26.718 13.2428 26.2734 12.2173 26.2734C10.2209 26.2734 8.60742 27.8945 8.60742 29.885C8.60742 31.8755 10.2209 33.5035 12.2173 33.5035C13.1881 33.5035 14.0495 33.1136 14.699 32.4911L15.1092 32.1217C16.1894 31.3351 16.8048 31.3215 17.8713 32.067L17.9807 32.1559L18.3294 32.4774C18.9789 33.0999 19.8403 33.5035 20.818 33.5035C22.8143 33.5035 24.4278 31.8823 24.4278 29.885C24.4278 27.8877 22.8075 26.2734 20.818 26.2734H20.8043Z" fill="#3E7578"/>
<path d="M37.9996 9.07715C37.0288 9.07715 36.1673 9.46704 35.5178 10.0895L35.1076 10.4589C34.0274 11.2455 33.4121 11.2591 32.3456 10.5136L32.2362 10.4247L31.8875 10.1032C31.238 9.48072 30.3766 9.07715 29.3989 9.07715C27.4025 9.07715 25.7891 10.6983 25.7891 12.6956C25.7891 13.7626 26.2608 14.7066 26.9923 15.3701L27.2795 15.6779C27.9768 16.6765 27.9768 17.2921 27.2795 18.2908L26.924 18.6875C26.2335 19.351 25.7891 20.2608 25.7891 21.2936C25.7891 23.2909 27.4094 24.9052 29.3989 24.9052C31.3884 24.9052 33.0156 23.2909 33.0156 21.2936C33.0156 20.3223 32.6259 19.4605 32.0037 18.8107L31.6277 18.4002C30.8415 17.3195 30.8278 16.7039 31.573 15.6368L31.6619 15.5274L31.9832 15.1785L32.3798 14.816C33.3779 14.1183 33.9932 14.1183 34.9914 14.816L35.3879 15.1717C36.0443 15.8626 36.9604 16.3072 37.9859 16.3072C39.9823 16.3072 41.5958 14.6861 41.5958 12.6956C41.5958 10.7051 39.9823 9.07715 37.9859 9.07715H37.9996Z" fill="#3E7578"/>
<path d="M37.9859 78.0537C36.9331 78.0537 36.0033 78.512 35.3469 79.2302L35.0051 79.5449C34.0069 80.2426 33.3916 80.2426 32.3934 79.5449L31.9969 79.1892C31.3406 78.4983 30.4244 78.0537 29.3989 78.0537C27.4025 78.0537 25.7891 79.6748 25.7891 81.6653C25.7891 83.6558 27.4025 85.2837 29.3989 85.2837C30.3697 85.2837 31.2312 84.8938 31.8807 84.2714L32.2909 83.902C33.3711 83.1154 33.9864 83.1017 35.0529 83.8473L35.1623 83.9362L35.511 84.2577C36.1605 84.8802 37.0219 85.2837 37.9996 85.2837C39.996 85.2837 41.6094 83.6626 41.6094 81.6653C41.6094 79.668 39.9891 78.0537 37.9996 78.0537H37.9859Z" fill="#93C01F"/>
<path d="M55.1871 60.8301C54.1342 60.8301 53.2044 61.2884 52.5481 62.0066L52.2063 62.3212C51.2081 63.0189 50.5928 63.0189 49.5946 62.3212L49.1981 61.9655C48.5417 61.2747 47.6256 60.8301 46.6001 60.8301C44.6037 60.8301 42.9902 62.4512 42.9902 64.4417C42.9902 66.4321 44.6037 68.0601 46.6001 68.0601C47.5709 68.0601 48.4323 67.6702 49.0818 67.0478L49.492 66.6784C50.5723 65.8918 51.1876 65.8781 52.2541 66.6237L52.3635 66.7126L52.7122 67.0341C53.3617 67.6565 54.2231 68.0601 55.2008 68.0601C57.1971 68.0601 58.8106 66.439 58.8106 64.4417C58.8106 62.4444 57.1903 60.8301 55.2008 60.8301H55.1871Z" fill="#3E7578"/>
<path d="M72.4898 26.2734C71.437 26.2734 70.5072 26.7317 69.8508 27.4499L69.509 27.7646C68.5108 28.4623 67.8955 28.4623 66.8973 27.7646L66.5008 27.4089C65.8445 26.718 64.9283 26.2734 63.9028 26.2734C61.9065 26.2734 60.293 27.8945 60.293 29.885C60.293 31.8755 61.9065 33.5035 63.9028 33.5035C64.8736 33.5035 65.7351 33.1136 66.3846 32.4911L66.7948 32.1217C67.875 31.3351 68.4903 31.3215 69.5568 32.067L69.6662 32.1559L70.0149 32.4774C70.6644 33.0999 71.5259 33.5035 72.5035 33.5035C74.4999 33.5035 76.1134 31.8823 76.1134 29.885C76.1134 27.8877 74.493 26.2734 72.5035 26.2734H72.4898Z" fill="#3E7578"/>
<path d="M46.6612 50.8157H47.1055C47.1055 50.8157 46.9756 50.4942 46.9278 50.4805C46.8799 50.4668 46.5312 50.5968 46.5312 50.5968L46.6612 50.8088V50.8157Z" fill="#3E7578"/>
<path d="M33.0078 98.8883C33.0078 97.835 32.5497 96.9047 31.8318 96.248L31.5173 95.906C30.82 94.9074 30.82 94.2918 31.5173 93.2931L31.8729 92.8964C32.5634 92.2329 33.0078 91.3232 33.0078 90.2903C33.0078 88.293 31.3874 86.6787 29.3979 86.6787C27.4084 86.6787 25.7812 88.293 25.7812 90.2903C25.7812 91.2616 26.1709 92.1235 26.7931 92.7733L27.1691 93.1837C27.9554 94.2644 27.969 94.88 27.2238 95.9471L27.1349 96.0565L26.8136 96.4054C26.1846 97.0552 25.7881 97.9239 25.7881 98.8952C25.7881 100.893 27.4084 102.507 29.4048 102.507C31.4011 102.507 33.0146 100.886 33.0146 98.8952L33.0078 98.8883Z" fill="#93C01F"/>
<path d="M63.8699 43.552C63.8152 43.552 63.7673 43.5657 63.7126 43.5657C61.0189 43.4836 58.8653 41.2879 58.8585 38.5724L58.8243 29.8375C58.7901 27.8676 57.1903 26.2807 55.2145 26.2807C55.1598 26.2807 55.1119 26.2943 55.0572 26.2943C52.3635 26.2123 50.2099 24.0166 50.2031 21.301L50.1894 21.2874C50.1894 19.2901 48.5691 17.6758 46.5796 17.6758C44.5901 17.6758 42.9629 19.2901 42.9629 21.2874C42.9629 23.2847 44.5832 24.899 46.5796 24.899C46.6411 24.899 46.7026 24.8853 46.7642 24.8784C49.3827 24.9742 51.4884 27.0741 51.5841 29.6939C51.5841 29.6939 51.632 38.5997 51.6525 38.8391C51.8029 40.6586 53.2796 42.0882 55.1187 42.1498C55.2623 42.1498 55.6383 42.1498 55.9118 42.1908C55.9187 42.1908 55.9187 42.1908 55.9255 42.1976C58.3115 42.5328 60.1575 44.5301 60.2395 46.9926C60.2395 47.0336 60.2395 47.0678 60.2395 47.1157C60.2395 47.1362 60.2395 47.1499 60.2395 47.1704C60.2395 47.1841 60.2395 47.1978 60.2395 47.2115C60.2395 47.444 60.219 47.745 60.1712 48.0596C60.1643 48.1075 60.1575 48.1554 60.1438 48.1964C60.1301 48.2512 60.1165 48.3127 60.1028 48.3674C60.0754 48.4837 60.0412 48.5932 60.0071 48.7026C59.9934 48.7368 59.9866 48.7778 59.9729 48.812C59.296 50.7615 57.4569 52.1637 55.2828 52.1774H55.2555C55.2555 52.1774 55.235 52.1774 55.2281 52.1774C55.2213 52.1774 55.2076 52.1774 55.2008 52.1774H54.9136C52.2951 52.0132 50.2236 49.8586 50.2167 47.1978L50.2031 47.1841C50.2031 47.061 50.1757 46.9447 50.1689 46.8284H50.1894L50.1689 29.4955C49.9775 27.676 48.4597 26.2533 46.5932 26.2533C44.7268 26.2533 43.2022 27.676 43.0176 29.4955L42.9971 46.8284H43.0176C43.0039 46.9447 42.9834 47.061 42.9834 47.1841C42.9834 49.1814 44.6037 50.7957 46.6001 50.7957C46.6616 50.7957 46.7231 50.782 46.7847 50.7752C49.3211 50.8709 51.3858 52.8477 51.5978 55.3581L51.6593 56.0626C51.8029 57.9299 53.3412 59.4006 55.235 59.4006C57.1288 59.4006 58.626 57.9778 58.8106 56.1584C58.8311 55.96 58.838 55.7616 58.8448 55.6453C58.8448 55.6385 58.8448 55.6317 58.8448 55.618C58.8448 55.6043 58.8448 55.5906 58.8448 55.5769C58.8448 55.5564 58.8448 55.5359 58.8448 55.5359C58.9815 52.9503 61.0668 50.8846 63.6579 50.7888C63.6579 50.7888 63.7468 50.7888 63.8972 50.7683C64.0613 50.7546 64.2254 50.7341 64.3826 50.7068C64.41 50.7068 64.4373 50.6999 64.4647 50.6931C64.6766 50.6589 64.8817 50.6042 65.0731 50.5358C66.4679 50.0364 67.466 48.7094 67.466 47.1431C67.466 45.1457 65.8457 43.5315 63.8494 43.5315L63.8699 43.552Z" fill="#3E7578"/>
<path d="M46.593 74.8176C45.6153 74.8176 44.8223 74.0241 44.8223 73.0528C44.8223 72.0815 45.6153 71.2812 46.593 71.2812C47.5707 71.2812 48.3569 72.0747 48.3569 73.0528C48.3569 74.031 47.5638 74.8176 46.593 74.8176Z" fill="white"/>
<path d="M97.0891 29.0918H103.331L112.445 54.0241H106.278L104.377 48.3057H95.5987L93.6912 54.0241H87.791L97.0959 29.0918H97.0891ZM103.03 43.928L100.008 34.5092L96.9113 43.928H103.037H103.03Z" fill="#29323C"/>
<path d="M114.42 29.0918H123.759C125.304 29.0918 126.61 29.2765 127.683 29.6322C128.757 29.9947 129.625 30.4735 130.302 31.0686C130.972 31.6637 131.457 32.3614 131.758 33.1412C132.059 33.9278 132.202 34.7417 132.202 35.5899C132.202 36.3902 132.059 37.0947 131.772 37.7035C131.485 38.3123 131.15 38.839 130.767 39.2767C130.384 39.7145 129.974 40.0565 129.536 40.3028C129.099 40.549 128.729 40.7132 128.435 40.7884C128.887 40.891 129.399 41.0689 129.987 41.3288C130.575 41.5887 131.129 41.9649 131.649 42.4506C132.168 42.9362 132.613 43.545 132.975 44.2837C133.337 45.0156 133.515 45.8843 133.515 46.883C133.515 48.1758 133.283 49.277 132.825 50.1731C132.367 51.0691 131.717 51.8079 130.883 52.3756C130.049 52.9502 129.03 53.3674 127.82 53.6273C126.61 53.8873 125.263 54.0241 123.766 54.0241H114.427V29.0918H114.42ZM123.233 39.0715C123.656 39.0715 124.074 39.0237 124.484 38.9211C124.894 38.8253 125.256 38.668 125.564 38.4559C125.878 38.2439 126.131 37.9566 126.33 37.5941C126.528 37.2316 126.63 36.7869 126.63 36.2671C126.63 35.7472 126.528 35.2684 126.33 34.9059C126.131 34.5434 125.872 34.2561 125.543 34.0441C125.215 33.832 124.853 33.6815 124.443 33.5994C124.032 33.5105 123.629 33.4695 123.233 33.4695H119.91V39.0784H123.233V39.0715ZM123.568 49.6874C123.964 49.6874 124.415 49.6532 124.914 49.5917C125.414 49.5301 125.872 49.3865 126.295 49.1607C126.719 48.935 127.075 48.6135 127.362 48.1894C127.649 47.7654 127.793 47.1839 127.793 46.4315C127.793 45.7612 127.656 45.214 127.383 44.7899C127.109 44.3658 126.76 44.0375 126.336 43.7981C125.913 43.5587 125.455 43.4013 124.955 43.3124C124.456 43.2235 123.998 43.1825 123.574 43.1825H119.91V49.6874H123.574H123.568Z" fill="#29323C"/>
<path d="M136.613 29.0918H153.651V34.0235H142.26V38.88H151.114V43.6613H142.26V49.0445H154.478V54.0172H136.62V29.085L136.613 29.0918Z" fill="#29323C"/>
<path d="M178.789 49.421C178.27 50.1461 177.634 50.8233 176.889 51.4594C176.143 52.0955 175.316 52.6496 174.407 53.1216C173.497 53.5935 172.513 53.9697 171.453 54.2433C170.394 54.5169 169.293 54.6537 168.151 54.6537C166.257 54.6537 164.528 54.3323 162.955 53.6825C161.383 53.0326 160.036 52.1297 158.901 50.9738C157.766 49.8178 156.891 48.4429 156.269 46.8628C155.647 45.2828 155.332 43.5454 155.332 41.6507C155.332 39.7559 155.647 38.0801 156.269 36.4727C156.891 34.8653 157.773 33.4699 158.901 32.2865C160.036 31.1032 161.389 30.1661 162.976 29.4821C164.555 28.7981 166.305 28.4561 168.226 28.4561C170.544 28.4561 172.568 28.8801 174.297 29.7283C176.027 30.5765 177.47 31.794 178.611 33.3878L174.762 37.0883C174.017 36.0418 173.128 35.2004 172.11 34.5643C171.091 33.9282 169.867 33.6135 168.452 33.6135C167.331 33.6135 166.326 33.8187 165.423 34.2291C164.528 34.6395 163.769 35.2073 163.147 35.9323C162.524 36.6574 162.046 37.4987 161.711 38.4563C161.376 39.4139 161.205 40.4331 161.205 41.5002C161.205 42.5672 161.376 43.6206 161.711 44.5646C162.046 45.5153 162.524 46.3362 163.147 47.0338C163.769 47.7315 164.514 48.2788 165.389 48.6823C166.257 49.079 167.242 49.2774 168.336 49.2774C169.231 49.2774 170.011 49.1816 170.674 48.997C171.33 48.8123 171.918 48.5592 172.431 48.2514C172.937 47.9367 173.395 47.5811 173.791 47.1638C174.188 46.7534 174.578 46.3362 174.947 45.9121L178.796 49.4279L178.789 49.421Z" fill="#29323C"/>
<path d="M180.99 29.0918H198.028V34.0235H186.637V38.88H195.491V43.6613H186.637V49.0445H198.855V54.0172H180.997V29.085L180.99 29.0918Z" fill="#29323C"/>
<path d="M201.91 29.0918H211.249C212.794 29.0918 214.1 29.2765 215.174 29.6322C216.247 29.9947 217.115 30.4735 217.792 31.0686C218.462 31.6637 218.948 32.3614 219.248 33.1412C219.549 33.9278 219.7 34.7417 219.7 35.5899C219.7 36.3902 219.556 37.0947 219.269 37.7035C218.982 38.3123 218.647 38.839 218.257 39.2767C217.874 39.7145 217.457 40.0565 217.026 40.3028C216.589 40.549 216.22 40.7132 215.926 40.7884C216.377 40.891 216.89 41.0689 217.478 41.3288C218.066 41.5887 218.619 41.9649 219.139 42.4506C219.659 42.9362 220.103 43.545 220.465 44.2837C220.828 45.0156 221.005 45.8843 221.005 46.883C221.005 48.1758 220.773 49.277 220.315 50.1731C219.85 51.0691 219.207 51.8079 218.373 52.3756C217.539 52.9502 216.514 53.3674 215.31 53.6273C214.1 53.8873 212.753 54.0241 211.256 54.0241H201.917V29.0918H201.91ZM210.723 39.0715C211.147 39.0715 211.564 39.0237 211.974 38.9211C212.384 38.8253 212.747 38.668 213.054 38.4559C213.362 38.2439 213.622 37.9566 213.82 37.5941C214.018 37.2316 214.121 36.7869 214.121 36.2671C214.121 35.7472 214.018 35.2684 213.82 34.9059C213.622 34.5434 213.362 34.2561 213.034 34.0441C212.712 33.832 212.343 33.6815 211.933 33.5994C211.523 33.5105 211.119 33.4695 210.723 33.4695H207.4V39.0784H210.723V39.0715ZM211.058 49.6874C211.454 49.6874 211.906 49.6532 212.405 49.5917C212.904 49.5301 213.362 49.3865 213.786 49.1607C214.21 48.935 214.565 48.6135 214.852 48.1894C215.139 47.7654 215.283 47.1839 215.283 46.4315C215.283 45.7612 215.146 45.214 214.873 44.7899C214.599 44.3658 214.251 44.0375 213.827 43.7981C213.403 43.5587 212.945 43.4013 212.446 43.3124C211.947 43.2235 211.489 43.1825 211.065 43.1825H207.4V49.6874H211.065H211.058Z" fill="#29323C"/>
<path d="M87.709 65.2415L88.2491 65.1253V60.7271L87.6543 60.6108V59.9336H89.3635V62.2934C89.4934 62.1019 89.6506 61.9514 89.8421 61.8488C90.0335 61.7394 90.2386 61.6915 90.4711 61.6915C90.9018 61.6915 91.2436 61.8351 91.4897 62.1224C91.7359 62.4097 91.8589 62.8543 91.8589 63.4494V65.1253L92.3922 65.2415V65.9119H90.2591V65.2415L90.7445 65.1253V63.4426C90.7445 63.1211 90.6898 62.8885 90.5736 62.7586C90.4574 62.6218 90.2933 62.5602 90.0677 62.5602C89.9104 62.5602 89.7737 62.5876 89.6575 62.6423C89.5413 62.697 89.4387 62.7791 89.3635 62.8817V65.1253L89.8489 65.2415V65.9119H87.7158V65.2415H87.709Z" fill="#29323C"/>
<path d="M95.4271 65.9118C95.3997 65.8434 95.3724 65.7681 95.3451 65.6997C95.3245 65.6245 95.304 65.5561 95.2904 65.4808C95.1605 65.6313 94.9964 65.7613 94.8049 65.8502C94.6135 65.946 94.4016 65.9939 94.1554 65.9939C93.7521 65.9939 93.4239 65.8844 93.1915 65.6655C92.9522 65.4466 92.8359 65.1457 92.8359 64.7626C92.8359 64.3796 92.9932 64.0718 93.3008 63.8597C93.6153 63.6477 94.0666 63.5382 94.6682 63.5382H95.2357V63.1347C95.2357 62.9363 95.181 62.779 95.0647 62.6696C94.9485 62.5601 94.7776 62.5054 94.552 62.5054C94.4221 62.5054 94.3127 62.5191 94.2101 62.5464C94.1076 62.5738 94.0324 62.608 93.9709 62.649L93.8956 63.0936H93.0547V62.1771C93.2598 62.0403 93.4991 61.924 93.7589 61.8282C94.0255 61.7325 94.3127 61.6846 94.6203 61.6846C95.1331 61.6846 95.5502 61.8077 95.8715 62.0608C96.1928 62.3139 96.3501 62.6696 96.3501 63.1347V64.8447C96.3501 64.9063 96.3501 64.9678 96.3501 65.0226C96.3501 65.0773 96.3501 65.132 96.3637 65.1867L96.7056 65.2346V65.9049H95.4134L95.4271 65.9118ZM94.4563 65.1662C94.6272 65.1662 94.7776 65.132 94.9143 65.0568C95.0511 64.9815 95.1605 64.8926 95.2357 64.7832V64.1539H94.6682C94.4289 64.1539 94.2512 64.2086 94.1281 64.318C94.005 64.4275 93.9435 64.5643 93.9435 64.7147C93.9435 64.8584 93.9914 64.961 94.0802 65.0431C94.1691 65.1252 94.299 65.1594 94.4563 65.1594V65.1662Z" fill="#29323C"/>
<path d="M99.0784 65.132C99.2766 65.132 99.4407 65.0773 99.5569 64.961C99.6732 64.8447 99.7347 64.6874 99.7347 64.4959H100.747L100.76 64.5164C100.767 64.9336 100.617 65.2825 100.288 65.5698C99.9672 65.8502 99.5638 65.9938 99.0784 65.9938C98.4631 65.9938 97.9845 65.7955 97.6495 65.4056C97.3145 65.0157 97.1504 64.5164 97.1504 63.9008V63.7845C97.1504 63.1757 97.3213 62.6695 97.6632 62.2797C98.005 61.8898 98.4972 61.6914 99.1331 61.6914C99.4681 61.6914 99.7689 61.7393 100.036 61.8419C100.302 61.9445 100.521 62.0813 100.699 62.266L100.712 63.3741H99.8031L99.6185 62.7243C99.5638 62.6764 99.4954 62.6353 99.4134 62.6011C99.3313 62.5669 99.2425 62.5533 99.1331 62.5533C98.8186 62.5533 98.593 62.6695 98.4631 62.8953C98.3332 63.121 98.2648 63.422 98.2648 63.7845V63.9008C98.2648 64.2701 98.3263 64.5711 98.4425 64.7968C98.5588 65.0225 98.7707 65.132 99.0715 65.132H99.0784Z" fill="#29323C"/>
<path d="M103.289 65.987C102.695 65.987 102.216 65.7955 101.854 65.4124C101.498 65.0294 101.32 64.5437 101.32 63.9555V63.805C101.32 63.1894 101.491 62.6832 101.826 62.2865C102.161 61.8898 102.619 61.6914 103.187 61.6914C103.747 61.6914 104.178 61.8624 104.486 62.1976C104.793 62.5327 104.951 62.991 104.951 63.5656V64.1744H102.476V64.1949C102.489 64.4685 102.578 64.6942 102.742 64.8721C102.906 65.0499 103.125 65.1388 103.406 65.1388C103.652 65.1388 103.857 65.1115 104.021 65.0636C104.185 65.0157 104.363 64.9336 104.554 64.831L104.855 65.5219C104.684 65.6587 104.458 65.7681 104.192 65.8639C103.918 65.9528 103.617 66.0007 103.282 66.0007L103.289 65.987ZM103.187 62.5464C102.982 62.5464 102.818 62.6217 102.695 62.7858C102.571 62.9431 102.503 63.1552 102.476 63.4083L102.489 63.4288H103.857V63.3262C103.857 63.0868 103.802 62.9021 103.693 62.7585C103.583 62.6148 103.412 62.5464 103.187 62.5464Z" fill="#29323C"/>
<path d="M105.389 62.437V61.7666H107.023L107.071 62.3139C107.2 62.1155 107.371 61.9582 107.57 61.8556C107.768 61.7461 108 61.6914 108.267 61.6914C108.534 61.6914 108.759 61.753 108.951 61.8693C109.142 61.9855 109.286 62.1634 109.381 62.4028C109.511 62.1839 109.675 62.0061 109.88 61.8829C110.086 61.7598 110.325 61.6982 110.598 61.6982C111.009 61.6982 111.33 61.8419 111.562 62.1223C111.802 62.4028 111.918 62.8337 111.918 63.4083V65.132L112.458 65.2483V65.9186H110.318V65.2483L110.803 65.132V63.4014C110.803 63.0868 110.749 62.8679 110.653 62.7448C110.55 62.6217 110.4 62.5601 110.195 62.5601C110.038 62.5601 109.901 62.5943 109.785 62.6627C109.669 62.7311 109.573 62.8337 109.504 62.9568C109.504 63.0047 109.504 63.0458 109.504 63.08C109.504 63.1142 109.504 63.1484 109.504 63.1826V65.1183L109.956 65.2346V65.9049H107.939V65.2346L108.39 65.1183V63.3878C108.39 63.08 108.335 62.8679 108.233 62.7379C108.13 62.6148 107.98 62.5464 107.775 62.5464C107.624 62.5464 107.494 62.5738 107.378 62.6353C107.262 62.6901 107.173 62.7721 107.098 62.8816V65.1183L107.576 65.2346V65.9049H105.443V65.2346L105.983 65.1183V62.5464L105.389 62.4301V62.437Z" fill="#29323C"/>
<path d="M112.814 63.7982C112.814 63.1826 112.985 62.6764 113.334 62.2797C113.683 61.8829 114.161 61.6914 114.77 61.6914C115.378 61.6914 115.864 61.8898 116.206 62.2797C116.554 62.6764 116.725 63.1826 116.725 63.7982V63.8803C116.725 64.5027 116.554 65.0089 116.206 65.4056C115.857 65.7955 115.385 65.9938 114.777 65.9938C114.168 65.9938 113.683 65.7955 113.334 65.4056C112.985 65.0157 112.814 64.5095 112.814 63.8803V63.7982ZM113.936 63.8803C113.936 64.2565 114.004 64.5643 114.134 64.79C114.264 65.0157 114.483 65.132 114.777 65.132C115.071 65.132 115.276 65.0157 115.412 64.79C115.549 64.5574 115.611 64.2565 115.611 63.8803V63.7982C115.611 63.4288 115.542 63.1278 115.406 62.8953C115.269 62.6627 115.057 62.5464 114.763 62.5464C114.469 62.5464 114.257 62.6627 114.127 62.8953C113.997 63.1278 113.929 63.4288 113.929 63.7982V63.8803H113.936Z" fill="#29323C"/>
<path d="M120.628 63.1894H119.876L119.753 62.6695C119.678 62.608 119.582 62.5533 119.466 62.5191C119.35 62.478 119.22 62.4575 119.083 62.4575C118.885 62.4575 118.735 62.4985 118.618 62.5875C118.502 62.6764 118.447 62.7858 118.447 62.9226C118.447 63.0457 118.502 63.1552 118.611 63.2304C118.721 63.3125 118.94 63.3878 119.268 63.4493C119.781 63.5519 120.163 63.7024 120.41 63.9008C120.656 64.0991 120.779 64.3727 120.779 64.7216C120.779 65.0909 120.622 65.3988 120.3 65.6313C119.979 65.8707 119.555 65.987 119.035 65.987C118.714 65.987 118.427 65.9391 118.153 65.8502C117.887 65.7544 117.647 65.6245 117.442 65.4535L117.429 64.5232H118.208L118.359 65.0636C118.427 65.1183 118.516 65.1593 118.632 65.1867C118.748 65.2141 118.871 65.2277 118.994 65.2277C119.22 65.2277 119.398 65.1867 119.514 65.1046C119.63 65.0225 119.692 64.9131 119.692 64.7695C119.692 64.6463 119.63 64.5437 119.514 64.4548C119.391 64.3659 119.172 64.2838 118.851 64.2154C118.365 64.1128 117.996 63.9692 117.743 63.7708C117.497 63.5724 117.367 63.3125 117.367 62.9705C117.367 62.6285 117.511 62.3207 117.798 62.0744C118.085 61.8214 118.488 61.6982 119.022 61.6982C119.343 61.6982 119.651 61.7393 119.931 61.8282C120.218 61.9171 120.444 62.0266 120.608 62.1634L120.622 63.1962L120.628 63.1894Z" fill="#29323C"/>
<path d="M123.15 62.437V61.7666H124.784L124.832 62.3139C124.969 62.1155 125.133 61.9582 125.331 61.8556C125.53 61.7461 125.762 61.6914 126.029 61.6914C126.295 61.6914 126.521 61.753 126.712 61.8693C126.904 61.9855 127.047 62.1634 127.143 62.4028C127.273 62.1839 127.437 62.0061 127.642 61.8829C127.847 61.7598 128.087 61.6982 128.36 61.6982C128.77 61.6982 129.092 61.8419 129.331 62.1223C129.57 62.4028 129.686 62.8337 129.686 63.4083V65.132L130.226 65.2483V65.9186H128.087V65.2483L128.565 65.132V63.4014C128.565 63.0868 128.517 62.8679 128.415 62.7448C128.312 62.6217 128.162 62.5601 127.957 62.5601C127.799 62.5601 127.663 62.5943 127.546 62.6627C127.43 62.7311 127.341 62.8337 127.273 62.9568C127.273 63.0047 127.273 63.0458 127.273 63.08C127.273 63.1142 127.273 63.1484 127.273 63.1826V65.1183L127.724 65.2346V65.9049H125.707V65.2346L126.159 65.1183V63.3878C126.159 63.08 126.104 62.8679 126.008 62.7379C125.906 62.6148 125.755 62.5464 125.55 62.5464C125.4 62.5464 125.27 62.5738 125.154 62.6353C125.037 62.6901 124.948 62.7721 124.873 62.8816V65.1183L125.359 65.2346V65.9049H123.226V65.2346L123.766 65.1183V62.5464L123.171 62.4301L123.15 62.437Z" fill="#93C01F"/>
<path d="M133.256 65.9117C133.222 65.8433 133.195 65.7681 133.174 65.6997C133.154 65.6244 133.133 65.556 133.119 65.4808C132.99 65.6313 132.825 65.7612 132.634 65.8502C132.443 65.9459 132.224 65.9938 131.978 65.9938C131.574 65.9938 131.253 65.8844 131.014 65.6655C130.774 65.4466 130.658 65.1456 130.658 64.7626C130.658 64.3795 130.815 64.0717 131.123 63.8597C131.431 63.6476 131.889 63.5382 132.49 63.5382H133.058V63.1346C133.058 62.9363 133.003 62.7789 132.887 62.6695C132.771 62.5601 132.6 62.5053 132.381 62.5053C132.251 62.5053 132.142 62.519 132.039 62.5464C131.937 62.5737 131.861 62.6079 131.8 62.649L131.725 63.0936H130.884V62.177C131.089 62.0402 131.328 61.9239 131.588 61.8282C131.855 61.7324 132.142 61.6845 132.449 61.6845C132.962 61.6845 133.379 61.8076 133.701 62.0607C134.022 62.3138 134.179 62.6695 134.179 63.1346V64.8447C134.179 64.9062 134.179 64.9678 134.179 65.0225C134.179 65.0772 134.179 65.132 134.193 65.1867L134.535 65.2346V65.9049H133.243L133.256 65.9117ZM132.285 65.1662C132.449 65.1662 132.607 65.132 132.743 65.0567C132.88 64.9815 132.99 64.8926 133.065 64.7831V64.1538H132.497C132.258 64.1538 132.08 64.2085 131.957 64.318C131.834 64.4274 131.773 64.5642 131.773 64.7147C131.773 64.8583 131.82 64.9609 131.909 65.043C131.998 65.1251 132.128 65.1593 132.285 65.1593V65.1662ZM132.661 60.1592H133.844V60.1797L132.798 61.1784H131.902L132.661 60.1592Z" fill="#93C01F"/>
<path d="M138.342 63.1894H137.59L137.474 62.6695C137.399 62.608 137.303 62.5533 137.187 62.5191C137.071 62.478 136.941 62.4575 136.804 62.4575C136.606 62.4575 136.455 62.4985 136.339 62.5875C136.223 62.6764 136.168 62.7858 136.168 62.9226C136.168 63.0457 136.223 63.1552 136.332 63.2304C136.442 63.3125 136.66 63.3878 136.989 63.4493C137.501 63.5519 137.884 63.7024 138.13 63.9008C138.376 64.0991 138.499 64.3727 138.499 64.7216C138.499 65.0909 138.342 65.3988 138.021 65.6313C137.7 65.8707 137.276 65.987 136.756 65.987C136.435 65.987 136.141 65.9391 135.874 65.8502C135.607 65.7544 135.375 65.6245 135.163 65.4535L135.149 64.5232H135.929L136.079 65.0636C136.148 65.1183 136.236 65.1593 136.353 65.1867C136.469 65.2141 136.585 65.2277 136.715 65.2277C136.941 65.2277 137.112 65.1867 137.235 65.1046C137.351 65.0225 137.412 64.9131 137.412 64.7695C137.412 64.6463 137.351 64.5437 137.235 64.4548C137.112 64.3659 136.893 64.2838 136.571 64.2154C136.086 64.1128 135.717 63.9692 135.464 63.7708C135.218 63.5724 135.088 63.3125 135.088 62.9705C135.088 62.6285 135.231 62.3207 135.519 62.0744C135.806 61.8214 136.209 61.6982 136.742 61.6982C137.064 61.6982 137.371 61.7393 137.659 61.8282C137.946 61.9171 138.171 62.0266 138.335 62.1634L138.349 63.1962L138.342 63.1894Z" fill="#93C01F"/>
<path d="M141.077 65.2414L141.61 65.1252V62.5533L141.016 62.437V61.7666H142.65L142.697 62.3686C142.793 62.1565 142.916 61.9855 143.074 61.8693C143.224 61.753 143.402 61.6914 143.607 61.6914C143.668 61.6914 143.73 61.6914 143.791 61.7051C143.86 61.7119 143.914 61.7256 143.955 61.7393L143.839 62.7585L143.381 62.7448C143.217 62.7448 143.08 62.779 142.978 62.8405C142.868 62.9021 142.786 62.9979 142.732 63.1142V65.132L143.265 65.2483V65.9186H141.077V65.2483V65.2414Z" fill="#93C01F"/>
<path d="M146.246 65.987C145.652 65.987 145.173 65.7955 144.817 65.4124C144.462 65.0294 144.277 64.5437 144.277 63.9555V63.805C144.277 63.1894 144.448 62.6832 144.783 62.2865C145.125 61.8898 145.576 61.6914 146.144 61.6914C146.704 61.6914 147.135 61.8624 147.443 62.1976C147.75 62.5327 147.908 62.991 147.908 63.5656V64.1744H145.433V64.1949C145.446 64.4685 145.535 64.6942 145.699 64.8721C145.863 65.0499 146.082 65.1388 146.363 65.1388C146.609 65.1388 146.814 65.1115 146.978 65.0636C147.142 65.0157 147.32 64.9336 147.511 64.831L147.812 65.5219C147.641 65.6587 147.422 65.7681 147.149 65.8639C146.875 65.9528 146.575 66.0007 146.24 66.0007L146.246 65.987ZM146.144 62.5464C145.939 62.5464 145.775 62.6217 145.652 62.7858C145.535 62.9431 145.46 63.1552 145.433 63.4083L145.446 63.4288H146.814V63.3262C146.814 63.0868 146.759 62.9021 146.65 62.7585C146.54 62.6148 146.369 62.5464 146.144 62.5464Z" fill="#93C01F"/>
<path d="M151.113 65.9118C151.078 65.8434 151.058 65.7681 151.031 65.6997C151.01 65.6245 150.99 65.5561 150.976 65.4808C150.846 65.6313 150.682 65.7613 150.49 65.8502C150.299 65.946 150.08 65.9939 149.841 65.9939C149.438 65.9939 149.109 65.8844 148.877 65.6655C148.638 65.4466 148.521 65.1457 148.521 64.7626C148.521 64.3796 148.679 64.0718 148.986 63.8597C149.294 63.6477 149.752 63.5382 150.361 63.5382H150.928V63.1347C150.928 62.9363 150.873 62.779 150.757 62.6696C150.641 62.5601 150.47 62.5054 150.244 62.5054C150.114 62.5054 150.005 62.5191 149.903 62.5464C149.8 62.5738 149.725 62.608 149.663 62.649L149.595 63.0936H148.754V62.1771C148.959 62.0403 149.198 61.924 149.458 61.8282C149.725 61.7325 150.012 61.6846 150.32 61.6846C150.832 61.6846 151.249 61.8077 151.571 62.0608C151.892 62.3139 152.049 62.6696 152.049 63.1347V64.8447C152.049 64.9063 152.049 64.9678 152.049 65.0226C152.049 65.0773 152.049 65.132 152.063 65.1867L152.405 65.2346V65.9049H151.113V65.9118ZM150.142 65.1662C150.313 65.1662 150.463 65.132 150.6 65.0568C150.737 64.9815 150.846 64.8926 150.921 64.7832V64.1539H150.354C150.114 64.1539 149.937 64.2086 149.814 64.318C149.691 64.4275 149.629 64.5643 149.629 64.7147C149.629 64.8584 149.677 64.961 149.766 65.0431C149.855 65.1252 149.985 65.1594 150.142 65.1594V65.1662Z" fill="#93C01F"/>
<path d="M152.707 60.6108V59.9336H154.423V65.1253L154.963 65.2415V65.9119H152.769V65.2415L153.309 65.1253V60.7271L152.714 60.6108H152.707Z" fill="#93C01F"/>
<path d="M158.148 60.6108V59.9336H159.864V65.1253L160.405 65.2415V65.9119H158.21V65.2415L158.75 65.1253V60.7271L158.155 60.6108H158.148Z" fill="#29323C"/>
<path d="M163.522 65.9118C163.494 65.8434 163.467 65.7681 163.44 65.6997C163.419 65.6245 163.399 65.5561 163.385 65.4808C163.255 65.6313 163.091 65.7613 162.9 65.8502C162.708 65.946 162.489 65.9939 162.243 65.9939C161.84 65.9939 161.519 65.8844 161.279 65.6655C161.04 65.4466 160.924 65.1457 160.924 64.7626C160.924 64.3796 161.081 64.0718 161.389 63.8597C161.703 63.6477 162.154 63.5382 162.756 63.5382H163.324V63.1347C163.324 62.9363 163.269 62.779 163.153 62.6696C163.036 62.5601 162.865 62.5054 162.64 62.5054C162.51 62.5054 162.401 62.5191 162.298 62.5464C162.195 62.5738 162.113 62.608 162.059 62.649L161.984 63.0936H161.143V62.1771C161.348 62.0403 161.587 61.924 161.847 61.8282C162.113 61.7325 162.401 61.6846 162.708 61.6846C163.221 61.6846 163.638 61.8077 163.959 62.0608C164.281 62.3139 164.438 62.6696 164.438 63.1347V64.8447C164.438 64.9063 164.438 64.9678 164.438 65.0226C164.438 65.0773 164.438 65.132 164.452 65.1867L164.793 65.2346V65.9049H163.501L163.522 65.9118ZM162.551 65.1662C162.722 65.1662 162.872 65.132 163.009 65.0568C163.146 64.9815 163.255 64.8926 163.33 64.7832V64.1539H162.763C162.524 64.1539 162.346 64.2086 162.223 64.318C162.1 64.4275 162.038 64.5643 162.038 64.7147C162.038 64.8584 162.086 64.961 162.175 65.0431C162.264 65.1252 162.394 65.1594 162.551 65.1594V65.1662Z" fill="#29323C"/>
<path d="M169.326 65.987C168.732 65.987 168.253 65.7955 167.891 65.4124C167.535 65.0294 167.357 64.5437 167.357 63.9555V63.805C167.357 63.1894 167.528 62.6832 167.863 62.2865C168.205 61.8898 168.656 61.6914 169.224 61.6914C169.784 61.6914 170.215 61.8624 170.523 62.1976C170.831 62.5327 170.988 62.991 170.988 63.5656V64.1744H168.513V64.1949C168.527 64.4685 168.615 64.6942 168.779 64.8721C168.944 65.0499 169.162 65.1388 169.443 65.1388C169.689 65.1388 169.894 65.1115 170.058 65.0636C170.222 65.0157 170.4 64.9336 170.591 64.831L170.892 65.5219C170.721 65.6587 170.502 65.7681 170.229 65.8639C169.955 65.9528 169.655 66.0007 169.32 66.0007L169.326 65.987ZM169.224 62.5464C169.019 62.5464 168.855 62.6217 168.732 62.7858C168.615 62.9431 168.54 63.1552 168.513 63.4083L168.527 63.4288H169.901V63.3262C169.901 63.0868 169.846 62.9021 169.737 62.7585C169.627 62.6148 169.456 62.5464 169.231 62.5464H169.224Z" fill="#29323C"/>
<path d="M173.586 65.132C173.784 65.132 173.942 65.0773 174.065 64.961C174.181 64.8447 174.243 64.6874 174.243 64.4959H175.254L175.268 64.5164C175.282 64.9336 175.124 65.2825 174.796 65.5698C174.475 65.8502 174.072 65.9938 173.586 65.9938C172.971 65.9938 172.492 65.7955 172.157 65.4056C171.822 65.0157 171.658 64.5164 171.658 63.9008V63.7845C171.658 63.1757 171.829 62.6695 172.171 62.2797C172.513 61.8898 173.005 61.6914 173.641 61.6914C173.976 61.6914 174.277 61.7393 174.543 61.8419C174.81 61.9445 175.029 62.0813 175.207 62.266L175.22 63.3741H174.311L174.126 62.7243C174.072 62.6764 174.003 62.6353 173.921 62.6011C173.839 62.5669 173.75 62.5533 173.641 62.5533C173.326 62.5533 173.101 62.6695 172.971 62.8953C172.841 63.121 172.773 63.422 172.773 63.7845V63.9008C172.773 64.2701 172.834 64.5711 172.95 64.7968C173.067 65.0225 173.279 65.132 173.579 65.132H173.586Z" fill="#29323C"/>
<path d="M175.891 63.7982C175.891 63.1826 176.062 62.6764 176.41 62.2797C176.759 61.8829 177.231 61.6914 177.846 61.6914C178.461 61.6914 178.94 61.8898 179.282 62.2797C179.63 62.6764 179.801 63.1826 179.801 63.7982V63.8803C179.801 64.5027 179.63 65.0089 179.282 65.4056C178.94 65.7955 178.461 65.9938 177.853 65.9938C177.244 65.9938 176.759 65.7955 176.41 65.4056C176.062 65.0157 175.891 64.5095 175.891 63.8803V63.7982ZM177.012 63.8803C177.012 64.2565 177.08 64.5643 177.21 64.79C177.347 65.0157 177.559 65.132 177.853 65.132C178.147 65.132 178.352 65.0157 178.489 64.79C178.619 64.5574 178.687 64.2565 178.687 63.8803V63.7982C178.687 63.4288 178.619 63.1278 178.482 62.8953C178.345 62.6627 178.133 62.5464 177.839 62.5464C177.545 62.5464 177.34 62.6627 177.203 62.8953C177.073 63.1278 177.005 63.4288 177.005 63.7982V63.8803H177.012Z" fill="#29323C"/>
<path d="M180.341 65.2414L180.874 65.1252V62.5533L180.279 62.437V61.7666H181.913L181.961 62.3617C182.098 62.1497 182.269 61.9855 182.474 61.8693C182.672 61.753 182.898 61.6914 183.151 61.6914C183.568 61.6914 183.896 61.8214 184.128 62.0881C184.361 62.3481 184.477 62.7653 184.477 63.3262V65.132L185.01 65.2483V65.9186H182.877V65.2483L183.356 65.132V63.333C183.356 63.0526 183.301 62.8611 183.192 62.7379C183.076 62.6217 182.911 62.5669 182.679 62.5669C182.529 62.5669 182.399 62.5943 182.282 62.6559C182.166 62.7174 182.071 62.7995 181.989 62.9089V65.132L182.44 65.2483V65.9186H180.334V65.2483L180.341 65.2414Z" fill="#29323C"/>
<path d="M185.455 63.7982C185.455 63.1826 185.626 62.6764 185.975 62.2797C186.317 61.8829 186.795 61.6914 187.41 61.6914C188.026 61.6914 188.504 61.8898 188.846 62.2797C189.195 62.6764 189.366 63.1826 189.366 63.7982V63.8803C189.366 64.5027 189.195 65.0089 188.846 65.4056C188.504 65.7955 188.026 65.9938 187.417 65.9938C186.809 65.9938 186.323 65.7955 185.975 65.4056C185.626 65.0157 185.455 64.5095 185.455 63.8803V63.7982ZM186.576 63.8803C186.576 64.2565 186.645 64.5643 186.775 64.79C186.904 65.0157 187.123 65.132 187.417 65.132C187.711 65.132 187.916 65.0157 188.053 64.79C188.19 64.5574 188.251 64.2565 188.251 63.8803V63.7982C188.251 63.4288 188.183 63.1278 188.046 62.8953C187.909 62.6627 187.698 62.5464 187.41 62.5464C187.123 62.5464 186.904 62.6627 186.775 62.8953C186.645 63.1278 186.576 63.4288 186.576 63.7982V63.8803Z" fill="#29323C"/>
<path d="M189.838 62.437V61.7666H191.472L191.52 62.3139C191.656 62.1155 191.821 61.9582 192.019 61.8556C192.217 61.7461 192.45 61.6914 192.716 61.6914C192.983 61.6914 193.208 61.753 193.4 61.8693C193.591 61.9855 193.735 62.1634 193.831 62.4028C193.96 62.1839 194.125 62.0061 194.33 61.8829C194.535 61.7598 194.774 61.6982 195.048 61.6982C195.458 61.6982 195.779 61.8419 196.012 62.1223C196.251 62.4028 196.367 62.8337 196.367 63.4083V65.132L196.907 65.2483V65.9186H194.767V65.2483L195.246 65.132V63.4014C195.246 63.0868 195.198 62.8679 195.095 62.7448C194.993 62.6217 194.842 62.5601 194.637 62.5601C194.48 62.5601 194.343 62.5943 194.227 62.6627C194.111 62.7311 194.015 62.8337 193.947 62.9568C193.947 63.0047 193.947 63.0458 193.947 63.08C193.947 63.1142 193.947 63.1484 193.947 63.1826V65.1183L194.398 65.2346V65.9049H192.381V65.2346L192.832 65.1183V63.3878C192.832 63.08 192.778 62.8679 192.682 62.7379C192.579 62.6148 192.429 62.5464 192.224 62.5464C192.074 62.5464 191.944 62.5738 191.827 62.6353C191.711 62.6901 191.622 62.7721 191.547 62.8816V65.1183L192.033 65.2346V65.9049H189.899V65.2346L190.44 65.1183V62.5464L189.845 62.4301L189.838 62.437Z" fill="#29323C"/>
<path d="M197.406 62.437V61.7666H199.122V65.1251L199.656 65.2414V65.9117H197.461V65.2414L198.001 65.1251V62.5532L197.406 62.437ZM198.61 60.1455H199.792V60.166L198.739 61.1647H197.844L198.61 60.1455Z" fill="#29323C"/>
<path d="M202.758 65.9118C202.731 65.8434 202.703 65.7681 202.676 65.6997C202.656 65.6245 202.635 65.5561 202.621 65.4808C202.492 65.6313 202.327 65.7613 202.136 65.8502C201.945 65.946 201.726 65.9939 201.48 65.9939C201.076 65.9939 200.748 65.8844 200.516 65.6655C200.276 65.4466 200.16 65.1457 200.16 64.7626C200.16 64.3796 200.317 64.0718 200.625 63.8597C200.94 63.6477 201.391 63.5382 201.992 63.5382H202.567V63.1347C202.567 62.9363 202.512 62.779 202.396 62.6696C202.28 62.5601 202.109 62.5054 201.883 62.5054C201.753 62.5054 201.644 62.5191 201.541 62.5464C201.439 62.5738 201.363 62.608 201.302 62.649L201.227 63.0936H200.386V62.1771C200.591 62.0403 200.83 61.924 201.09 61.8282C201.357 61.7325 201.644 61.6846 201.951 61.6846C202.464 61.6846 202.881 61.8077 203.203 62.0608C203.524 62.3139 203.681 62.6696 203.681 63.1347V64.8447C203.681 64.9063 203.681 64.9678 203.681 65.0226C203.681 65.0773 203.681 65.132 203.695 65.1867L204.037 65.2346V65.9049H202.744L202.758 65.9118ZM201.787 65.1662C201.958 65.1662 202.109 65.132 202.245 65.0568C202.382 64.9815 202.492 64.8926 202.567 64.7832V64.1539H201.992C201.753 64.1539 201.575 64.2086 201.452 64.318C201.329 64.4275 201.268 64.5643 201.268 64.7147C201.268 64.8584 201.316 64.961 201.404 65.0431C201.493 65.1252 201.623 65.1594 201.78 65.1594L201.787 65.1662Z" fill="#29323C"/>
<path d="M206.669 65.2414L207.202 65.1252V62.5533L206.607 62.437V61.7666H208.241L208.289 62.3686C208.385 62.1565 208.515 61.9855 208.665 61.8693C208.816 61.753 208.993 61.6914 209.199 61.6914C209.253 61.6914 209.322 61.6914 209.383 61.7051C209.445 61.7119 209.499 61.7256 209.547 61.7393L209.431 62.7585L208.973 62.7448C208.809 62.7448 208.672 62.779 208.57 62.8405C208.46 62.9021 208.378 62.9979 208.323 63.1142V65.132L208.857 65.2483V65.9186H206.669V65.2483V65.2414Z" fill="#29323C"/>
<path d="M211.914 65.987C211.32 65.987 210.841 65.7955 210.479 65.4124C210.123 65.0294 209.945 64.5437 209.945 63.9555V63.805C209.945 63.1894 210.116 62.6832 210.451 62.2865C210.786 61.8898 211.244 61.6914 211.812 61.6914C212.372 61.6914 212.803 61.8624 213.111 62.1976C213.418 62.5327 213.576 62.991 213.576 63.5656V64.1744H211.101V64.1949C211.114 64.4685 211.203 64.6942 211.367 64.8721C211.531 65.0499 211.75 65.1388 212.031 65.1388C212.277 65.1388 212.482 65.1115 212.646 65.0636C212.81 65.0157 212.988 64.9336 213.179 64.831L213.48 65.5219C213.309 65.6587 213.09 65.7681 212.817 65.8639C212.543 65.9528 212.242 66.0007 211.907 66.0007L211.914 65.987ZM211.812 62.5464C211.607 62.5464 211.443 62.6217 211.32 62.7858C211.196 62.9431 211.121 63.1552 211.101 63.4083L211.114 63.4288H212.482V63.3262C212.482 63.0868 212.427 62.9021 212.318 62.7585C212.208 62.6148 212.037 62.5464 211.812 62.5464Z" fill="#29323C"/>
<path d="M216.864 65.9118C216.836 65.8434 216.809 65.7681 216.782 65.6997C216.761 65.6245 216.741 65.5561 216.727 65.4808C216.597 65.6313 216.433 65.7613 216.241 65.8502C216.05 65.946 215.831 65.9939 215.585 65.9939C215.182 65.9939 214.86 65.8844 214.621 65.6655C214.382 65.4466 214.266 65.1457 214.266 64.7626C214.266 64.3796 214.423 64.0718 214.731 63.8597C215.045 63.6477 215.496 63.5382 216.098 63.5382H216.672V63.1347C216.672 62.9363 216.618 62.779 216.501 62.6696C216.385 62.5601 216.214 62.5054 215.995 62.5054C215.865 62.5054 215.756 62.5191 215.653 62.5464C215.551 62.5738 215.476 62.608 215.414 62.649L215.339 63.0936H214.498V62.1771C214.703 62.0403 214.942 61.924 215.202 61.8282C215.469 61.7325 215.756 61.6846 216.064 61.6846C216.576 61.6846 216.994 61.8077 217.315 62.0608C217.636 62.3139 217.8 62.6696 217.8 63.1347V64.8447C217.8 64.9063 217.8 64.9678 217.8 65.0226C217.8 65.0773 217.8 65.132 217.814 65.1867L218.156 65.2346V65.9049H216.864V65.9118ZM215.893 65.1662C216.064 65.1662 216.214 65.132 216.351 65.0568C216.488 64.9815 216.597 64.8926 216.672 64.7832V64.1539H216.098C215.859 64.1539 215.681 64.2086 215.558 64.318C215.435 64.4275 215.373 64.5643 215.373 64.7147C215.373 64.8584 215.421 64.961 215.51 65.0431C215.599 65.1252 215.729 65.1594 215.886 65.1594L215.893 65.1662Z" fill="#29323C"/>
<path d="M218.531 60.6108V59.9336H220.247V65.1253L220.787 65.2415V65.9119H218.593V65.2415L219.133 65.1253V60.7271L218.538 60.6108H218.531Z" fill="#29323C"/>
</g>
<defs>
<clipPath id="clip0_898_2143">
<rect width="221" height="102" fill="white" transform="translate(0 0.5)"/>
</clipPath>
</defs>
</svg>
